<?xml version="1.0" standalone="no"?>
<!DOCTYPE svg PUBLIC "-//W3C//DTD SVG 20010904//EN"
 "http://www.w3.org/TR/2001/REC-SVG-20010904/DTD/svg10.dtd">
<svg version="1.0" xmlns="http://www.w3.org/2000/svg"
 width="48.000000pt" height="48.000000pt" viewBox="0 0 48.000000 48.000000"
 preserveAspectRatio="xMidYMid meet">

<g transform="translate(0.000000,48.000000) scale(0.100000,-0.100000)"
fill="#000000" stroke="none">
<path d="M172 429 c-48 -14 -109 -80 -123 -131 -23 -89 12 -182 88 -229 57
-36 154 -34 210 3 62 41 88 90 88 168 0 77 -26 127 -85 166 -43 29 -125 39
-178 23z m148 -42 c75 -40 109 -132 76 -210 -13 -32 -78 -97 -96 -97 -6 0 -10
15 -10 34 0 19 -4 38 -10 41 -15 9 -12 25 4 25 8 0 24 12 35 27 18 22 20 34
15 77 -7 58 -18 76 -36 58 -15 -15 -100 -16 -115 -1 -17 17 -33 1 -33 -29 1
-15 -2 -38 -5 -52 -7 -29 26 -80 52 -80 18 0 13 -20 -10 -34 -12 -8 -21 -5
-36 8 -12 11 -21 15 -21 10 0 -17 31 -54 46 -54 8 0 14 -7 14 -15 0 -23 -16
-18 -56 17 -67 59 -81 132 -41 208 27 51 90 90 147 90 20 0 56 -10 80 -23z"/>
</g>
</svg>
